<svg height="960" viewBox="0 0 960 960" width="960" xmlns="http://www.w3.org/2000/svg"><path d="m485.943468 1.95895954c81.620693 0 151.034883 34.73038916 205.832875 101.86811146l1.276019 1.575889 18.655953.000946.46327.001788.463243.005366c33.133134.511699 59.578032 27.786224 59.066333 60.919358l-9.936314 643.388804c-.50612 32.771913-27.217025 59.073488-59.992846 59.073488l-19.761639-.00075-1.791754 1.802916c-54.941466 54.865454-118.977273 84.395345-190.701247 87.153509l-2.36731.081228c-73.822744 2.227845-139.901247-24.296-196.326447-78.098042l-.156242-.150611-40.8.000347c-27.338095 0-49.551762-21.940286-49.993302-49.173158l-.006698-.826842v-687.693411c0-27.614237 22.385762-49.9999995 50-49.9999995l33.844-.000937.650691-.7312275c52.29083-58.3768566 119.437063-88.53731266 198.955451-89.18607767zm0 39.99999996c-75.353738 0-136.53704 29.9763124-183.549904 89.9289365l-22.883202-.000936 12.714399 2.846141c4.376412.979582 7.565451 4.752992 7.801826 9.231462.241925 4.583599.480093 9.167198.714505 13.750797 2.467912-8.243925 10.112288-14.251614 19.159835-14.251614l32.065746-.000457 1.329812-1.541417c46.763841-53.8853114 99.149738-81.4472329 156.792206-82.0097929l1.803038-.0087904c59.211504 0 114.557647 32.583135 165.863778 96.8014073l.098166.124593 28.580461.000694.054138.000449.079125.000819c11.597046.147202 20.878978 9.667796 20.733503 21.264841l-7.588438 597.705715c-.208403 16.418714-13.577547 29.619239-29.997583 29.619239l-18.133206-.000757-.629938.82636c-39.449972 51.323487-85.417598 78.578075-137.543105 81.013874l-1.630926.068039c-52.937398 1.943762-99.675617-22.059928-139.646019-71.201218l-.633012-.783055-36.656207.000274c-10.499993 0-19.190414-8.113957-19.947212-18.547111l-.02228-.348622-29.207118-528.200041c2.690113 70.853025 4.482732 141.706106 5.377855 212.559223 1.418424 112.27479.632891 228.480091-2.356362 348.616274-.11702 4.702948-3.496227 8.688402-8.116731 9.572912l-3.051256.583762 9.738906.000347c51.467352 54.219419 111.029085 80.308255 178.6852 78.266509 67.656115-2.041747 127.25946-31.726782 178.810033-89.055106h37.0185c10.925274 0 19.828909-8.767192 19.997615-19.691163l9.938749-643.388804c.168132-11.044378-8.646834-20.135886-19.691212-20.306452-.102938-.00159-.205887-.002385-.308838-.002385h-38.462387c-49.514568-68.9632977-111.948721-103.4449465-187.30246-103.4449465zm25.948261 37.9443292c-53.774786 0-102.84279 26.4031493-147.617113 79.9734843-1.899989 2.273246-4.710177 3.586973-7.67288 3.586973h-36.700809l34.941539 631.880817h41.484421c3.080669 0 5.989388 1.419922 7.884359 3.848831 37.042946 47.480385 79.112793 69.900818 126.83259 68.148636 47.863437-1.757455 90.228938-27.429766 127.503149-77.864518 1.885501-2.551222 4.869683-4.056466 8.042039-4.056466h23.125855c5.473345 0 9.929726-4.400175 9.999194-9.87308l7.586793-597.705714c.006928-.552241-.435069-1.005602-.987309-1.012612l-33.304359-.00008c-3.07958 0-5.987397-1.418923-7.882452-3.846387-48.705377-62.389-99.721862-93.0798843-153.235017-93.0798843zm-272.024367 63.6046713v686.073347c0 .224523.007399.447317.021967.668152l49.000007-9.380212.104956-4.330859c2.685005-113.431736 3.392356-223.325195 2.122254-329.680061l-.071239-5.797665c-1.415128-112.013868-5.078765-224.027827-10.99092-336.041958l.394949 7.572543zm303.280829 548.758066c30.452571 4.27983 50.908051 34.620931 46.307321 67.356824-4.600729 32.735892-32.62694 56.263336-63.079511 51.983506-30.452571-4.279829-50.908052-34.620931-46.307322-67.356823 4.60073-32.735893 32.62694-56.263337 63.079512-51.983507zm-43.274151 54.766969c-2.686067 19.112365 6.828047 36.468712 21.633186 42.665228-.087922-.299264-.182009-.610505-.281685-.933605-.234777-.76103-.490149-1.5568-.839224-2.621907-.043193-.131792-.127961-.389667-.219755-.668786l-.111316-.33843c-.110267-.335208-.210753-.64062-.241759-.735077-.230627-.70256-.408579-1.250205-.577844-1.78072-.446114-1.398219-.794368-2.563655-1.088258-3.671571-.901334-3.397878-1.283874-6.123751-.905098-8.95777.989342-7.402296 4.497636-13.998761 10.222126-19.652785l.012106-.013683.000078-13.661c0-5.42924 4.326671-9.847932 9.720095-9.996158l.279905-.003842c5.522848 0 10 4.477152 10 10v18.151743c0 3.0482-1.39029 5.929959-3.77615 7.827113-3.886804 3.090652-5.918266 6.148717-6.533022 9.372119l-.039906.223025.015922.102244c.051264.310326.139869.719975.268005 1.222244l.067373.258821c.057245.215806.106632.401059.1557.579813l.063505.228138c.236556.837258.537816 1.759167 1.693628 5.285819.382234 1.166283.669852 2.062538.94513 2.95485.733481 2.37758 1.277044 4.411962 1.67055 6.381681.104509.523126.189507 1.052313.255445 1.587757 13.696128-3.974966 24.996347-16.985826 27.387374-33.998868 3.125031-22.235753-10.263513-42.094646-29.285422-44.768001-19.02191-2.673355-37.365657 12.725855-40.490689 34.961608zm1.528462-626.930174c30.223873 0 56.999625 7.188873 80.12233 21.656696 22.977588 14.377024 42.230706 35.827381 57.883774 64.195705l.306524.559599 39.988341.000366c5.292718 0 9.651179 4.119259 9.980198 9.369906l.013579.277378 11.278103 319.551933c.418239 11.857839-3.747528 23.208105-11.471672 31.922438-7.724098 8.714282-18.492254 14.212459-30.314697 15.220677-42.547528 3.626177-85.097207 5.43933-127.648281 5.43933-44.897478 0-91.326684-2.018514-139.289513-6.053796-10.975925-.923788-21.097162-5.734145-28.706606-13.451163-7.609412-7.716987-12.277247-17.904731-13.046872-28.892592l-22.593159-322.685661c-.40495-5.783691 4.177729-10.69845 9.975579-10.69845l32.483-.000366.343756-.736656c13.092112-27.936803 30.262707-49.174448 51.657728-63.527316l.731013-.486635c21.940678-14.493384 48.114131-21.661393 78.306875-21.661393zm0 20c-26.428758 0-48.766683 6.11759-67.28339 18.349196-19.959822 13.184887-35.960476 33.762355-48.07968 62.006381-1.576769 3.674689-5.191035 6.056789-9.189727 6.056789l-28.245575-.000366 21.844719 311.987307c.421636 6.019662 2.911795 11.59236 6.993006 15.891903l.343774.355331c4.285066 4.345644 9.9625 7.043979 16.142616 7.564128 47.414314 3.989134 93.284843 5.983359 137.612456 5.983359 41.983671 0 83.966718-1.789007 125.949379-5.367043 6.65946-.567918 12.695071-3.649677 17.046725-8.559187 4.351663-4.909521 6.686581-11.27136 6.450983-17.951007l-10.938658-309.904791-36.336617.000366c-3.635458 0-6.975608-1.971943-8.736311-5.134068l-.14702-.273936c-14.641208-28.323779-32.588304-49.050309-53.912834-62.393019-19.835055-12.410748-42.929857-18.611343-69.513846-18.611343z"/></svg>