<svg height="960" viewBox="0 0 960 960" width="960" xmlns="http://www.w3.org/2000/svg"><path d="m268.547145.64060086 438.731375 18.89904744c23.273121.9953456 41.939284 19.5871765 43.028156 42.8604884 11.934281 255.7234273 13.016419 472.3539523 3.209447 650.0250843-1.048381 18.993313-2.187946 37.147384-3.408444 54.519775-2.208915 31.441374-4.546256 58.590134-7.057235 83.710361-.265862 2.65972-.503306 5.005882-.742327 7.330733l-.110539 1.07256c-.443477 4.292697-.90806 8.666001-1.582484 14.958791-.677404 6.320587-.928977 8.799486-.968174 9.429342-.403495 6.483783-1.31328 12.25219-3.129742 17.958344-2.658229 8.350444-7.118057 15.89206-13.752536 22.102547-6.39362 5.985023-13.746117 9.778654-21.729488 11.983834-4.986589 1.377404-9.766953 2.051594-15.410216 2.443987-5.518699.383732-50.535772 2.613155-192.90272 9.601642l-.011711.000575c-133.707779 6.563427-180.728923 8.889906-190.656657 9.466689-19.433332 1.129041-31.807113.517015-49.473678-1.61769-.478875-.057864-2.190247-.265611-2.558028-.310083-.941973-.113904-1.676324-.201588-2.372142-.282889-.758807-.08866-1.447864-.166838-2.100611-.238096-.033793-.003685-.033793-.003685-.067803-.007377-.079712-.008645-.1572-.016994-.233714-.025169l-.341948-.036036c-.687606-.071398-1.448065-.143749-3.192162-.306941-5.080573-.475382-7.727555-.775996-11.248451-1.388174-6.231966-1.083551-11.938398-2.734797-17.687699-5.570066-18.127241-8.939453-28.800462-26.546107-28.800462-47.403963 0-9.145421-2.280599-293.529328-6.80587-848.4511473v-.6814227c.152508-22.5850886 17.05575-41.60775461 39.568265-44.35741116l44.442728-5.40043276c2.442982-.29685754 4.906198-.39281339 7.36487-.28690222zm7.915137 40.37330714-.066983-1.0587669c16.031272 253.6689239 22.894972 441.8657129 20.583504 564.7035899-2.301184 122.291367-7.326662 226.567474-15.081757 312.849115 5.174849.072541 11.027063-.040475 17.836789-.436108 24.802691-1.44099 371.222644-18.21288 383.11648-19.039895s16.024381-3.419557 16.873835-17.069507c.179342-2.881852 1.109579-10.873266 2.486561-24.110217l.255215-2.464551c2.816698-27.326144 7.295119-75.035403 11.110993-144.166885 9.724315-176.173648 8.64873-391.492258-3.226754-645.9558278-.120961-2.5853967-2.194943-4.6511467-4.780804-4.7617389zm-19.990558.7820071-34.907092 4.2399363c-2.524205.3083048-4.415187 2.4618956-4.394368 5.0047724 4.537983 556.5189832 6.806888 839.4447472 6.806888 848.7772932 0 10.956845 7.904925 13.071246 17.528824 14.143592l.644072.070032c.646483.068659 1.299995.133457 1.958702.196705l.76165.072366.382357.035914 1.15226.107847c1.155684.108516 2.320589.220366 3.485234.347506.287567.031393.574718.063228.861604.095454l1.289689.147486c.716053.083213 1.431835.168393 2.149668.254745l.862534.104133.888214.107721.892192.108253c1.664396.201716 3.354454.404475 5.098118.598693l-.037037.420832c7.755241-85.940497 12.786071-190.063083 15.08711-312.346743 2.297176-122.078368-4.537171-309.611535-20.510619-562.4865379zm289.031344 536.2003469c67.669137 9.768554 113.473214 79.553689 103.094767 155.405683-10.385543 75.903851-73.237805 130.099998-140.970349 120.32229-67.669137-9.768554-113.473214-79.55369-103.094767-155.405683 10.385543-75.903852 73.237805-130.099998 140.970349-120.32229zm-121.154971 123.033529c-8.961488 65.495989 29.956348 124.789541 86.13692 132.899634 56.117167 8.10094 109.343048-37.794587 118.29744-103.238719 8.961488-65.495989-29.956348-124.789541-86.136921-132.899634-56.117166-8.10094-109.343047 37.794587-118.297439 103.238719zm113.198526.344348c31.355198 4.406686 52.428138 35.66365 47.686457 69.402461-4.74168 33.73881-33.613877 57.976443-64.969075 53.569757-31.355198-4.406685-52.428138-35.663649-47.686457-69.40246 4.741681-33.73881 33.613878-57.976443 64.969075-53.569758zm-45.163714 56.35322c-2.848794 20.270228 7.44367 38.665804 23.342621 44.893031-.148733-.529328-.31609-1.092738-.502029-1.695463-.244083-.791194-.509361-1.617834-.871778-2.723652-.11649-.355438-.524228-1.594132-.593787-1.806031-.238752-.727315-.422911-1.29406-.597992-1.842803-.460713-1.443977-.820068-2.646561-1.1229-3.788186-.922868-3.479061-1.313798-6.264716-.929141-9.142732 1.018228-7.618424 4.640765-14.40753 10.561405-20.229149l.049016-.048729.00054-14.314c0-5.42924 4.326671-9.847931 9.720095-9.996158l.279905-.003842c5.522847 0 10 4.477153 10 10v18.814074c0 3.0482-1.39029 5.929959-3.77615 7.827113-4.102118 3.261862-6.257354 6.51317-6.906844 9.952978l-.048546.275835c.050523.355629.152196.844561.310052 1.463494l.071103.273188c.367196 1.384268.424086 1.562576 1.988579 6.336206.395576 1.206993.6931 2.134117.977683 3.056593.756892 2.453465 1.3173 4.55089 1.722362 6.578459.133958.670533.236495 1.351166.308501 2.042285 14.520324-4.015113 26.539852-17.709897 29.062115-35.656732 3.265982-23.238671-10.740022-44.013426-30.664558-46.813637s-39.114269 13.309187-42.380252 36.547858zm-149.125452-666.2094747 320.305207 10.6082287c19.180662.633438 34.693154 15.826895 35.724941 34.989562 3.501313 64.943732 5.734191 129.887632 6.698625 194.831625.951277 64.057973.64634 126.624815-.915044 187.702147-.511544 19.895373-16.669184 35.821947-36.570573 36.04683l-314.982584 3.538873h-.202341c-20.434188.117604-37.095224-16.351726-37.213489-36.786933-.375718-66.083169-1.496451-132.136979-3.362198-198.161444-1.840415-65.128056-4.392686-129.765176-7.656793-193.911363l-.031278-.773662c-.023183-.774717-.02197-1.550171.003622-2.325211.674381-20.423434 17.777556-36.4331847 38.201905-35.7586527zm-18.212799 36.4186917c-.015664.474385-.009252.948692.012667 1.421674 3.271828 64.297905 5.830041 129.085511 7.674696 194.36358 1.869996 66.174862 2.993281 132.379093 3.369849 198.61166.054335 9.388692 7.709412 16.955687 17.098096 16.901652h.09139l314.983997-3.537597c9.143579-.103321 16.567405-7.420981 16.802402-16.560686 1.554378-60.803272 1.858003-123.100849.91068-186.892586-.960571-64.683849-3.184511-129.367791-6.671865-194.052592-.474077-8.804716-7.601372-15.785429-16.414985-16.076497l-320.305216-10.608229c-9.38368-.309904-17.241861 7.045895-17.551711 16.429621z"/></svg>