<?xml version="1.0" encoding="UTF-8"?>
<svg width="100" height="100" version="1.1" viewBox="0 0 100 100" xmlns="http://www.w3.org/2000/svg">
  <g transform="matrix(.17492 0 0 .17492 1.7451 10.426)">
    <path class="cls-2"
          d="m124.46 226.75c0.2-13.78 9.17-16.99 15.14-16.99h20.79l3.99-10c0.79-2.35-0.44-4.24-2.84-4.24h-29.32c-6.35 0-29.16 3.12-29.36 31.47-0.2 28.37 23.01 31 29.36 31h33.74v-14.24h-26.37c-5.97 0-14.94-3.21-15.14-17zm96.71-8.55h-25.83v-22.66h-20.45v62.47h20.36v-25.26h25.72v25.25h20.16v-62.46h-19.96zm76.77 25.57h-23.74c-2.19 0-2.09-1.75-2.09-1.75v-46.48h-20.26s0.03 40.04 0 50.5c0 13.66 13.45 11.97 14.03 11.97h30.8l3.96-9.92c0.83-2.37-0.33-4.27-2.69-4.32zm120.75-22.75-3.4 8.5c-0.76 2.34 0.45 4.19 2.84 4.19h10.22v10.04h-13.3c-5.97 0-14.94-3.21-15.14-17 0.2-13.78 9.17-16.99 15.14-16.99h29.77l4.04-10.13c0.7-2.3-0.51-4.09-2.88-4.09h-1.52-36.77c-6.36-0.01-29.17 3.1-29.37 31.46-0.2 28.37 23.02 31 29.37 31h42.71l-0.11-36.99h-31.61zm-64.93-25.46h-23.89c-1.44 0-2.24 0.23-3.18 2.19l-23.96 60.23h20.86l18.24-46.31 8.39 21.25h-10.51l-3.85 9.55c-0.92 2.45 0.29 4.41 2.77 4.41h16.95l4.5 11.09h20.83l-24.03-60.45c-0.94-1.96-1.67-1.96-3.11-1.96zm200.12-21.92c-4.99-7.33-13.31-11.78-23.43-12.55h-491.05c-4.67 0-9.75 3.21-12.04 7.67l-0.12 0.24-0.11 0.25-30.75 75.93c-4.97 12.22-4.63 23.88 0.95 32.79 4.99 7.95 13.64 12.72 24.38 13.42h490.43c4.68 0 9.74-3.22 12.04-7.67l0.12-0.24 0.09-0.24 32.31-79.68 0.09-0.22 0.07-0.24c3.45-11.11 2.38-21.58-2.99-29.49zm-2.52 27.79-17.76 43.82h-48.89c-3.05 0-4.26-0.63-4.26-3.53l0.04-8.56h28.18l3.23-8.1 0.03-0.08c0.95-2.35-0.06-4.29-2.25-4.53h-29.2l-0.04-8.53c0-2.9 1.21-3.53 4.26-3.53h32.56v-12.89l-42.87 0.06c-7.79 0.55-14.02 6.72-14.66 14.48l0.02 32.17c0 8.75 7.11 15.84 15.85 15.84h48.47c2.1 0.05 3.25 1.53 2.91 3.51l-7.92 19.54c-1.3 2.51-4.4 4.56-6.93 4.56h-490.05c-15.99-1.03-24.98-12.4-23.19-27.66h80.87c5.93 0 18.1-4.79 18.1-19.41s-11.88-19.5-18.1-19.5h-26.53c-3.16 0-5.74-2.15-5.74-4.73s2.57-4.69 5.74-4.69l35.81 0.07 3.91-9.82c0.92-2.45-0.3-4.4-2.77-4.4 0 0-43.99-0.02-45.42-0.02-5.94 0-18.11 4.8-18.11 19.41s11.88 19.5 18.11 19.5h26.52c3.16 0 5.73 2.15 5.73 4.73s-2.57 4.7-5.73 4.7h-63.58c-2.41 0-3.61-1.91-2.83-4.28l27.58-68.18c1.31-2.52 4.4-4.56 6.93-4.56h490.62c18.11 1.36 27.11 16.04 21.36 34.58z"/>
    <path class="cls-2"
          d="m513.07 261.27c3.71 0 6.66 3.02 6.66 6.78s-2.95 6.81-6.69 6.81-6.72-2.98-6.72-6.81 3.01-6.78 6.72-6.78zm-0.03 1.05c-2.99 0-5.42 2.56-5.42 5.73s2.44 5.76 5.45 5.76c3.01 0.03 5.42-2.54 5.42-5.73s-2.41-5.75-5.42-5.75h-0.03zm-1.27 9.68h-1.21v-7.57c0.63-0.09 1.24-0.18 2.14-0.18 1.14 0 1.9 0.24 2.35 0.57s0.69 0.85 0.69 1.57c0 1-0.66 1.59-1.47 1.84v0.06c0.66 0.12 1.11 0.72 1.27 1.84 0.18 1.18 0.36 1.63 0.48 1.87h-1.27c-0.18-0.24-0.36-0.94-0.51-1.93-0.18-0.96-0.66-1.32-1.63-1.32h-0.84zm0-4.19h0.87c1 0 1.84-0.36 1.84-1.3 0-0.66-0.48-1.32-1.84-1.32-0.39 0-0.66 0.03-0.87 0.06z"/>
  </g>
</svg>
